<svg height="490pt" viewBox="0 -16 490.66667 490" width="490pt" xmlns="http://www.w3.org/2000/svg"><path d="m486.230469 34.339844c-2.773438-2.007813-6.359375-2.582032-9.601563-1.453125l-192 64c-4.351562 1.453125-7.296875 5.527343-7.296875 10.113281v320c0 3.433594 1.644531 6.65625 4.4375 8.660156 1.835938 1.324219 4.011719 2.007813 6.230469 2.007813 1.128906 0 2.261719-.171875 3.371094-.554688l192-64c4.351562-1.453125 7.296875-5.527343 7.296875-10.113281v-320c0-3.433594-1.644531-6.65625-4.4375-8.660156zm0 0" fill="#607d8b"/><path d="m206.039062 96.886719-192-64c-3.265624-1.109375-6.851562-.554688-9.601562 1.453125-2.792969 2.003906-4.4375 5.226562-4.4375 8.660156v320c0 4.585938 2.945312 8.660156 7.296875 10.113281l192 64c1.109375.382813 2.238281.554688 3.371094.554688 2.21875 0 4.394531-.683594 6.226562-2.007813 2.796875-2.003906 4.4375-5.226562 4.4375-8.660156v-320c0-4.585938-2.941406-8.660156-7.292969-10.113281zm0 0" fill="#607d8b"/><path d="m288 96.332031c-5.886719 0-10.667969 4.78125-10.667969 10.667969s-4.796875 10.667969-10.664062 10.667969h-42.667969c-5.867188 0-10.667969-4.78125-10.667969-10.667969s-4.777343-10.667969-10.664062-10.667969c-5.890625 0-10.667969 4.78125-10.667969 10.667969v320c0 17.640625 14.355469 32 32 32h42.667969c17.640625 0 32-14.359375 32-32v-320c0-5.886719-4.78125-10.667969-10.667969-10.667969zm0 0" fill="#455a64"/><path d="m266.667969 459h-42.667969c-17.644531 0-32-14.359375-32-32v-320c0-5.886719 4.777344-10.667969 10.667969-10.667969 5.886719 0 10.664062 4.78125 10.664062 10.667969s4.78125 10.667969 10.667969 10.667969h42.667969c5.886719 0 10.664062-4.78125 10.664062-10.667969s4.78125-10.667969 10.667969-10.667969 10.667969 4.78125 10.667969 10.667969v320c0 17.640625-14.359375 32-32 32zm-53.335938-321.8125v289.8125c0 5.886719 4.78125 10.667969 10.667969 10.667969h42.667969c5.886719 0 10.664062-4.78125 10.664062-10.667969v-289.8125c-3.328125 1.171875-6.933593 1.8125-10.664062 1.8125h-42.667969c-3.734375 0-7.339844-.640625-10.667969-1.8125zm0 0"/><path d="m288 437.667969c-4.457031 0-8.617188-2.816407-10.113281-7.296875-1.855469-5.589844 1.152343-11.628906 6.742187-13.484375l184.703125-61.566407v-297.515624l-177.960937 59.308593c-5.652344 1.855469-11.628906-1.152343-13.484375-6.742187s1.152343-11.628906 6.742187-13.484375l192-64c3.222656-1.109375 6.828125-.554688 9.621094 1.453125 2.773438 2.003906 4.417969 5.226562 4.417969 8.660156v320c0 4.585938-2.945313 8.660156-7.296875 10.113281l-192 64c-1.132813.382813-2.261719.554688-3.371094.554688zm0 0"/><path d="m202.667969 437.667969c-1.109375 0-2.242188-.171875-3.371094-.554688l-192-64c-4.351563-1.453125-7.296875-5.527343-7.296875-10.113281v-320c0-3.433594 1.644531-6.65625 4.4375-8.660156 2.792969-2.007813 6.335938-2.582032 9.621094-1.453125l192 64c5.589844 1.855469 8.597656 7.894531 6.742187 13.484375s-7.851562 8.597656-13.484375 6.742187l-177.984375-59.308593v297.515624l184.707031 61.566407c5.585938 1.855469 8.59375 7.894531 6.738282 13.484375-1.492188 4.480468-5.652344 7.296875-10.109375 7.296875zm0 0"/><path d="m245.332031 139c-5.886719 0-10.664062-4.777344-10.664062-10.667969 0-44.800781-119.253907-89.363281-194.433594-106.941406-5.738281-1.347656-9.300781-7.085937-7.957031-12.824219 1.324218-5.738281 7.0625-9.277344 12.820312-7.957031 21.570313 5.058594 210.902344 51.457031 210.902344 127.722656 0 5.890625-4.777344 10.667969-10.667969 10.667969zm0 0"/><path d="m245.332031 139c-5.886719 0-10.664062-4.777344-10.664062-10.667969 0-76.265625 189.332031-122.664062 210.898437-127.722656 5.71875-1.320313 11.480469 2.21875 12.824219 7.957031 1.34375 5.738282-2.21875 11.476563-7.957031 12.824219-75.179688 17.578125-194.433594 62.140625-194.433594 106.941406 0 5.890625-4.777344 10.667969-10.667969 10.667969zm0 0"/></svg>